<svg xmlns="http://www.w3.org/2000/svg" viewBox="0 0 41.03 41.03"><path d="M26.26,28.93V45.52h6.29a2.9,2.9,0,0,0,2.9-2.9V38.43a2.89,2.89,0,0,1,2.89-2.9h4.28a2.9,2.9,0,0,0,2.9-2.9V26.26H28.93A4.14,4.14,0,0,1,26.26,28.93Z" transform="translate(-4.48 -4.48)" style="fill:#d1d3d4"/><path d="M42.64,4.48H30.34A25.86,25.86,0,0,0,4.48,30.34v12.3a2.88,2.88,0,0,0,2.88,2.88H23.74V28.93A4.14,4.14,0,0,1,21,24a4.08,4.08,0,0,1,3-3,4.14,4.14,0,0,1,5,2.75H45.52V7.36A2.88,2.88,0,0,0,42.64,4.48Z" transform="translate(-4.48 -4.48)" style="fill:#d1d3d4"/></svg>