<svg xmlns="http://www.w3.org/2000/svg" viewBox="0 0 176.52 234.62"><path d="M40.06,16.11,181.41,188.17c-14-3.87-34.66-8.26-56.39-8.26a131.52,131.52,0,0,0-33.1,4c-31.47,8.22-57.34,32.93-73.83,52.79Z" transform="translate(-11.9 -9.26)" style="fill:#414042"/><path d="M46.16,15.36h0M44.59,31.08,165.45,178.19A208.24,208.24,0,0,0,125,173.91a137.4,137.4,0,0,0-34.61,4.14c-25.88,6.76-48,23.95-64.54,41L44.59,31.08M39.67,9.26a5.42,5.42,0,0,0-5.45,4.91L11.93,237.89a5.43,5.43,0,0,0,5.47,6,5.32,5.32,0,0,0,4.17-2c14.17-17.32,40.21-43.93,71.87-52.19A125.21,125.21,0,0,1,125,185.91c21.76,0,42.5,4.54,56.47,8.49a5.69,5.69,0,0,0,1.55.22,5.45,5.45,0,0,0,4.12-8.91L43.84,11.26a5.35,5.35,0,0,0-4.17-2Z" transform="translate(-11.9 -9.26)" style="fill:#fff"/></svg>