<svg xmlns="http://www.w3.org/2000/svg" viewBox="0 0 482.76 564.5"><path d="M290.57,82.09c-64.92-11-201.95,20.46-201.95,126.45s68.71,92,82.33,93.86c21.58,3,27.63,28,22,39.37s-53.57,53.56-42.4,78,64.35-12.11,64.35-12.11-20.23,36.24-18.67,72.93,11.86,35.08,11.1,37.6-26.5,14.38-26.5,14.38,1.9-36.34-37.85-26.49-28,52.24-28,52.24,4.54,27.63,18.17,40.12c17,9.37,111.67,12.49,188.51,0s93.12-33.69,93.12-33.69S624.25,575,558.67,429.59C506.34,516.28,454.1,480.88,449.56,475s-9.7-49.26-29.53-91.23-43.6-81-40-99.54C387.48,141.9,341.83,90.75,290.57,82.09Z" transform="translate(-88.62 -42.16)" style="fill:#fff"/><path d="M432.76,371.48c3.54-9.39,64.47-3,73.59,14.24s-47.31,67.5-49,62.5S444.24,397.68,432.76,371.48Z" transform="translate(-88.62 -42.16)" style="fill:#fff"/><path d="M396.13,294.67c5.48-10.78,74.22-15.36,82.25,2.39s-34.15,64.67-48,67.83C427.26,357.78,397.82,300.06,396.13,294.67Z" transform="translate(-88.62 -42.16)" style="fill:#fff"/><circle cx="167.25" cy="123.48" r="24.31" style="fill:#231f20"/><path d="M393.41,205c8.55-8.55,72.5,8.47,74.62,27.84s-59,51.26-73.16,50C394.72,273.71,397.73,218.87,393.41,205Z" transform="translate(-88.62 -42.16)" style="fill:#fff"/><path d="M370.4,124.63c5.1-11,70-7.79,78.66,9.68S406.62,194,392.9,197.66C389.46,175.7,382.06,145.69,370.4,124.63Z" transform="translate(-88.62 -42.16)" style="fill:#fff"/><path d="M312.22,70.87c.92-12.06,62.73-38.36,76.95-25s-10.34,65-21.9,73.26C359.43,105.08,340.17,80.62,312.22,70.87Z" transform="translate(-88.62 -42.16)" style="fill:#fff"/></svg>